<?xml version="1.0" standalone="no"?>
<!DOCTYPE svg PUBLIC "-//W3C//DTD SVG 20010904//EN"
 "http://www.w3.org/TR/2001/REC-SVG-20010904/DTD/svg10.dtd">
<svg version="1.0" xmlns="http://www.w3.org/2000/svg"
 width="1259.000000pt" height="1280.000000pt" viewBox="0 0 1259.000000 1280.000000"
 preserveAspectRatio="xMidYMid meet">
<g transform="translate(0.000000,1280.000000) scale(0.100000,-0.100000)"
fill="#000000" stroke="none">
<path d="M456 12239 l-26 -20 0 -415 0 -414 23 -4 c12 -3 65 -8 117 -11 347
-23 697 -100 871 -191 190 -100 281 -306 318 -724 7 -76 11 -972 11 -2655 0
-2529 4 -2879 35 -3245 97 -1122 385 -1968 886 -2601 105 -133 334 -363 469
-469 735 -583 1775 -870 3145 -870 1682 0 2871 427 3592 1290 525 627 832
1512 928 2670 30 371 35 765 35 3266 0 1655 4 2557 10 2625 44 437 134 623
354 729 169 81 516 154 841 175 50 3 100 8 113 11 l22 4 0 414 0 415 -26 20
-27 21 -1736 0 -1737 0 -27 -28 -27 -28 0 -407 0 -406 33 -5 c17 -3 70 -8 117
-11 310 -22 590 -92 747 -187 150 -90 230 -257 280 -585 17 -111 18 -284 18
-3033 0 -3079 1 -2980 -46 -3354 -168 -1340 -733 -2091 -1754 -2334 -453 -108
-1062 -114 -1528 -16 -888 188 -1415 730 -1656 1706 -99 398 -142 748 -162
1308 -15 438 -7 5500 10 5630 41 332 106 518 219 621 135 123 421 210 790 240
75 6 147 13 160 15 l22 4 0 413 0 414 -23 21 -23 22 -2671 0 -2670 0 -27 -21z"/>
</g>
</svg>
