<?xml version="1.0" standalone="no"?>
<!DOCTYPE svg PUBLIC "-//W3C//DTD SVG 20010904//EN"
 "http://www.w3.org/TR/2001/REC-SVG-20010904/DTD/svg10.dtd">
<svg version="1.0" xmlns="http://www.w3.org/2000/svg"
 width="1069.000000pt" height="1280.000000pt" viewBox="0 0 1069.000000 1280.000000"
 preserveAspectRatio="xMidYMid meet">
<g transform="translate(0.000000,1280.000000) scale(0.100000,-0.100000)"
fill="#000000" stroke="none">
<path d="M3100 12788 c-19 -5 -705 -85 -1525 -178 -820 -93 -1509 -172 -1532
-175 l-43 -6 0 -92 c0 -87 3 -98 43 -192 24 -55 1150 -2810 2503 -6123 l2459
-6022 118 2 118 3 703 1580 c387 869 1604 3605 2705 6080 1102 2475 2011 4515
2022 4533 15 27 19 53 19 132 l0 99 -42 6 c-24 3 -470 55 -993 116 -522 61
-1191 140 -1485 176 -294 36 -573 67 -620 69 l-85 5 -1091 -2973 c-693 -1888
-1096 -2973 -1104 -2973 -9 0 -352 1029 -993 2973 l-981 2972 -80 -1 c-45 -1
-97 -6 -116 -11z"/>
</g>
</svg>
